<?xml version="1.0" encoding="UTF-8" standalone="no"?>
<svg
   xmlns:dc="http://purl.org/dc/elements/1.1/"
   xmlns:cc="http://creativecommons.org/ns#"
   xmlns:rdf="http://www.w3.org/1999/02/22-rdf-syntax-ns#"
   xmlns:svg="http://www.w3.org/2000/svg"
   xmlns="http://www.w3.org/2000/svg"
   viewBox="0 0 830.26666 209.67999"
   height="209.67999"
   width="830.26666"
   xml:space="preserve"
   id="svg2"
   version="1.1"><metadata
     id="metadata8"><rdf:RDF><cc:Work
         rdf:about=""><dc:format>image/svg+xml</dc:format><dc:type
           rdf:resource="http://purl.org/dc/dcmitype/StillImage" /></cc:Work></rdf:RDF></metadata><defs
     id="defs6"><clipPath
       id="clipPath20"
       clipPathUnits="userSpaceOnUse"><path
         id="path18"
         d="M 0,0 H 6227 V 1572.59 H 0 Z" /></clipPath></defs><g
     transform="matrix(1.3333333,0,0,-1.3333333,0,209.68)"
     id="g10"><g
       transform="scale(0.1)"
       id="g12"><g
         id="g14"><g
           clip-path="url(#clipPath20)"
           id="g16"><path
             id="path22"
             style="fill:#254895;fill-opacity:1;fill-rule:nonzero;stroke:none"
             d="m 241.129,826.211 c 0,-94.598 17.73,-166.668 53.18,-216.324 35.464,-49.668 86.265,-74.465 152.484,-74.465 63.828,0 113.461,24.797 148.926,74.465 33.082,49.656 49.64,121.726 49.64,216.324 0,85.094 -17.73,152.457 -53.195,202.119 -37.84,47.26 -88.641,70.92 -152.473,70.92 -61.496,0 -109.918,-24.85 -145.382,-74.46 -35.45,-47.317 -53.18,-113.485 -53.18,-198.579 z m 404.23,744.639 h 120.559 c 33.086,0 61.449,-12.43 85.109,-37.23 23.598,-24.83 35.45,-52.65 35.45,-83.33 V 758.805 C 886.477,590.965 838,477.5 741.102,418.43 644.141,359.309 538.988,329.77 425.512,329.77 c -61.5,0 -121.778,10.062 -180.832,30.128 C 185.555,379.969 138.289,412.5 102.84,457.422 34.2422,544.84 0,664.227 0,815.551 c 0,148.922 34.2422,268.289 102.84,358.159 70.914,92.2 161.883,138.27 273.027,138.27 59.059,0 111.094,-11.86 156.024,-35.46 47.261,-28.35 85.105,-65.03 113.468,-109.93 v 404.26" /><path
             id="path24"
             style="fill:#254895;fill-opacity:1;fill-rule:nonzero;stroke:none"
             d="m 1547.72,822.676 c -33.13,-16.586 -79.23,-31.93 -138.28,-46.121 l -81.56,-17.75 c -42.55,-11.848 -73.31,-27.192 -92.2,-46.063 -16.56,-26.054 -24.81,-52.054 -24.81,-78.004 0,-35.465 10.63,-63.847 31.91,-85.117 21.27,-18.98 51.96,-28.391 92.19,-28.391 66.15,0 118.18,18.918 156.02,56.731 37.78,37.805 56.73,89.848 56.73,156.043 z M 1604.45,386.5 c -49.63,-26.051 -102.27,-41.93 -157.79,-47.859 -55.57,-5.879 -104.6,-8.871 -147.15,-8.871 -85.11,0 -159.57,23.07 -223.4,69.14 -63.82,46.11 -95.735,122.32 -95.735,228.711 0,99.317 28.925,170.195 86.875,212.758 57.9,42.559 131.75,70.926 221.63,85.098 11.79,0 25.97,1.789 42.54,5.328 16.52,3.535 35.47,6.472 56.74,8.863 103.99,14.195 156.02,44.879 156.02,92.192 0,35.47 -18.35,58.52 -54.97,69.14 -36.66,10.65 -70.36,15.98 -101.05,15.98 -33.14,0 -62.66,-4.78 -88.65,-14.19 -26.03,-9.47 -44.94,-27.2 -56.73,-53.2 H 1005.2 c 9.42,73.25 42.55,133.53 99.28,180.86 63.83,54.33 154.81,81.53 273.04,81.53 132.36,0 231.65,-22.47 297.86,-67.37 68.53,-47.29 102.82,-113.46 102.82,-198.55 V 723.348 c 0,-94.586 -17.17,-168.399 -51.41,-221.598 -34.29,-53.191 -75.07,-91.641 -122.34,-115.25" /><path
             id="path26"
             style="fill:#254895;fill-opacity:1;fill-rule:nonzero;stroke:none"
             d="m 2304.7,347.5 c -78.01,-4.73 -162.56,-3.539 -253.53,3.539 -91.03,7.07 -136.52,65 -136.52,173.781 v 1042.47 h 127.66 c 30.69,0 57.9,-11.86 81.55,-35.47 23.6,-23.65 35.45,-52 35.45,-85.09 v -159.56 h 145.39 v -49.65 c 0,-35.47 -11.85,-64.43 -35.46,-86.87 -23.66,-22.51 -52.02,-33.67 -85.1,-33.67 h -24.83 V 592.152 c 0,-40.191 23.61,-60.261 70.93,-60.261 h 74.46 V 347.5" /><path
             id="path28"
             style="fill:#254895;fill-opacity:1;fill-rule:nonzero;stroke:none"
             d="m 3633.29,815.551 c 0,92.195 -17.73,163.117 -53.19,212.779 -35.47,49.63 -86.32,74.46 -152.49,74.46 -63.8,0 -113.46,-24.83 -148.92,-74.46 -33.13,-44.928 -49.64,-115.853 -49.64,-212.779 0,-89.867 17.71,-157.254 53.17,-202.125 35.47,-49.606 86.27,-74.465 152.49,-74.465 61.43,0 109.92,24.859 145.39,74.465 35.46,49.652 53.19,117.039 53.19,202.125 z M 3229.05,120.582 c 0,-33.1211 -11.87,-61.4531 -35.45,-85.1211 C 3169.93,11.8516 3141.57,0 3108.5,0 h -120.59 v 882.938 c 0,165.432 48.44,278.352 145.39,338.642 96.93,60.26 202.12,90.4 315.58,90.4 59.07,0 118.79,-11.23 179.08,-33.67 60.29,-22.52 108.16,-54.96 143.62,-97.52 70.92,-92.2 106.39,-210.438 106.39,-354.579 0,-148.938 -35.47,-269.512 -106.39,-361.711 -70.93,-89.852 -161.95,-134.73 -273.05,-134.73 -59.12,0 -111.14,10.609 -156.02,31.929 -47.31,23.61 -85.09,60.262 -113.46,109.922 V 120.582" /><path
             id="path30"
             style="fill:#254895;fill-opacity:1;fill-rule:nonzero;stroke:none"
             d="m 4585.27,1024.79 c -35.46,49.61 -83.93,74.46 -145.38,74.46 -66.2,0 -117,-23.66 -152.46,-70.92 -35.47,-47.318 -53.2,-112.318 -53.2,-195.049 V 347.5 h -241.11 v 1219.79 h 120.56 c 33.09,0 61.43,-11.86 85.09,-35.47 23.61,-23.65 35.46,-52 35.46,-85.09 v -280.14 c 42.56,70.93 102.85,115.8 180.85,134.78 78,18.88 152.46,14.17 223.38,-14.2 66.15,-28.36 121.73,-73.31 166.66,-134.75 44.88,-61.49 67.39,-146.61 67.39,-255.287 V 347.5 h -237.58 v 489.344 c 0,35.437 -2.99,67.91 -8.87,97.496 -5.92,29.539 -19.5,59.668 -40.79,90.45" /><path
             id="path32"
             style="fill:#254895;fill-opacity:1;fill-rule:nonzero;stroke:none"
             d="M 5122.41,14.1914 V 209.191 h 67.37 c 47.26,0 84.52,11.25 111.71,33.719 27.15,22.461 32.48,58.469 15.94,108.129 l -329.77,939.671 h 273.04 l 191.48,-666.628 166.69,581.528 c 14.17,56.73 51.94,85.1 113.46,85.1 h 170.18 L 5540.84,216.309 C 5512.47,138.27 5477.02,82.7812 5434.46,49.6602 5391.9,21.2695 5322.16,7.07031 5225.24,7.07031 c -7.07,0 -15.39,0 -24.8,0 -9.5,0 -17.74,0 -24.83,0 -7.1,2.39063 -15.97,4.19139 -26.6,5.33989 -10.64,1.2382 -19.5,1.7812 -26.6,1.7812" /><path
             id="path34"
             style="fill:#f0411e;fill-opacity:1;fill-rule:nonzero;stroke:none"
             d="m 2879.46,1499.88 c 0,-40.17 -99.76,-72.7 -222.84,-72.7 -123.07,0 -222.85,32.53 -222.85,72.7 0,40.14 99.78,72.71 222.85,72.71 123.08,0 222.84,-32.57 222.84,-72.71" /><path
             id="path36"
             style="fill:#f0411e;fill-opacity:1;fill-rule:nonzero;stroke:none"
             d="m 2436.1,1481.77 v -63.53 c 0,0 10.81,-59.04 220.13,-64.08 h 26.24 c 0,0 169.19,5.04 196.99,66.84 0,58.53 0,58.53 0,58.53 0,0 -4.64,-64.08 -214.73,-70.18 0,0 -215.5,-1.69 -228.63,72.42" /><path
             id="path38"
             style="fill:#f0411e;fill-opacity:1;fill-rule:nonzero;stroke:none"
             d="m 2436.1,1408.23 v -63.51 c 0,0 10.81,-59.12 220.13,-64.1 h 26.24 c 0,0 169.19,4.98 196.99,66.84 0,58.53 0,58.53 0,58.53 0,0 -4.64,-64.06 -214.73,-70.21 0,0 -215.5,-1.66 -228.63,72.45" /><path
             id="path40"
             style="fill:#f0411e;fill-opacity:1;fill-rule:nonzero;stroke:none"
             d="m 2436.1,1332.42 v -63.5 c 0,0 10.81,-59.05 220.13,-64.08 h 26.24 c 0,0 169.19,5 196.99,66.87 0,58.5 0,58.5 0,58.5 0,0 -4.64,-64.08 -214.73,-70.18 0,0 -215.5,-1.7 -228.63,72.39" /><path
             id="path42"
             style="fill:#254895;fill-opacity:1;fill-rule:nonzero;stroke:none"
             d="m 2881.45,422.059 c -21.98,115.863 -168.39,182.746 -174.1,185.336 -78.43,37.207 -118.24,66.988 -137.86,85.472 -25.49,23.852 -38.47,78.5 -16.33,110.406 25.59,36.985 73.48,60.59 84.13,65.524 l -27.51,14.941 c 0,0 -41.56,23.258 -78.59,47.141 -38.13,-28.141 -66.82,-59.145 -84.3,-92.813 -37.07,-71.453 -16.1,-134.144 -0.29,-165.175 39.03,-76.207 128.48,-121.082 132.34,-122.969 86.43,-42.293 145.25,-83.082 145.36,-83.082 40.98,-31.918 48.13,-58.531 48.75,-71.379 0.67,-15.242 1.84,-43.52 26.83,-58.07 8.33,-4.879 17.89,-7.52 27.62,-7.52 17.83,0 35.05,8.668 44.89,22.57 18.12,25.539 10.57,63.348 9.06,69.618" /><path
             id="path44"
             style="fill:#254895;fill-opacity:1;fill-rule:nonzero;stroke:none"
             d="m 2569.81,540.762 c -1.58,0.789 -17.57,8.859 -38.48,23.25 -28.76,-20.66 -52.42,-43.731 -70.24,-69.082 -25.43,-36.41 -34.49,-77 -34.49,-100.66 -0.05,-19.969 5.71,-35.911 17.05,-47.27 13.87,-13.891 30.87,-15.379 37.52,-15.379 l 2.06,0.051 0.9,0.039 c 25.66,1.848 45.11,17.93 53.33,44.129 l 0.4,1.301 0.27,1.289 4.81,23.609 0.28,1.492 0.17,1.5 c 1.12,13.699 20.74,43.028 38.12,58.028 l 29.75,21.961 c 16.66,10.609 29.58,16.339 29.69,16.39 l 1.74,0.789 c -20.95,11.91 -45.28,25.051 -72.88,38.563" /><path
             id="path46"
             style="fill:#254895;fill-opacity:1;fill-rule:nonzero;stroke:none"
             d="m 2624.97,893.25 64.61,-35.137 c 6.05,-3.289 11.74,-6.703 15.31,-8.867 l 30.94,-23.086 c 2.79,-2.39 5.37,-4.73 6.2,-5.453 0.18,-0.223 11.45,-14.023 18.49,-24.578 3.69,-5.43 8.93,-18.383 12.01,-26.969 l 0.22,-1.121 0.16,-1.227 0.11,-19.96 c -2.51,-15.29 -21.1,-50.102 -32.22,-56.875 l -1.22,-0.793 -1.12,-0.856 -29.78,-23.203 c -19.48,-13.004 -35.84,-20.074 -36.02,-20.176 l -1.59,-0.699 c 14.63,-8.016 31.13,-16.535 49.97,-25.449 2.39,-1.094 29.66,-13.641 62.04,-36.258 33.29,24.652 59.3,53.293 77.02,85.766 34.9,64.054 24.23,131.777 2.62,173.793 -29.15,57 -76.69,87.609 -84.39,92.316 -33.73,24.504 -164.35,95.602 -177.38,102.522 -63.21,42.39 -61.71,79.37 -61.71,79.7 l 0.18,2.18 -0.06,1.23 c -0.89,27.74 -12.57,42.78 -22.17,50.42 -9.55,7.6 -20.89,11.61 -32.85,11.61 -19.26,0 -37.41,-10.53 -48.58,-28.32 -13.57,-21.66 -8.55,-46.74 -5.87,-60.31 8.38,-41.27 28.49,-78.57 59.82,-110.97 27.98,-28.863 124.09,-83.031 135.26,-89.23" /><path
             id="path48"
             style="fill:#254895;fill-opacity:1;fill-rule:nonzero;stroke:none"
             d="m 2783.61,951.672 c 34.65,25.101 87.62,73.918 98.18,143.698 0.95,3.73 5.46,23.51 -0.07,43.58 -5.9,21.41 -26.42,43.16 -54.07,43.16 -6.35,0 -12.65,-1.22 -18.79,-3.52 -26.15,-9.91 -31.61,-34.43 -33.85,-44.7 l -4.23,-24.16 -2.06,-5.89 c -4.19,-12.28 -6.98,-20.43 -17.51,-33.57 -5.41,-6.75 -11.88,-13.16 -17.35,-17.61 l -44.38,-29.07 c -4.96,-3.26 -9.6,-6.24 -13.88,-9.01 37.57,-20.943 83.55,-47.068 108.01,-62.908" /><path
             id="path50"
             style="fill:#254895;fill-opacity:1;fill-rule:nonzero;stroke:none"
             d="m 2579.86,1104.68 h 235.91 v 32.7734 h -235.91 z" /><path
             id="path52"
             style="fill:#254895;fill-opacity:1;fill-rule:nonzero;stroke:none"
             d="m 2815.77,1039.63 h -163.29 l -49.24,32.78 h 212.53 v -32.78" /><path
             id="path54"
             style="fill:#254895;fill-opacity:1;fill-rule:nonzero;stroke:none"
             d="m 2499.11,357.711 h 235.91 v 32.7695 h -235.91 z" /><path
             id="path56"
             style="fill:#254895;fill-opacity:1;fill-rule:nonzero;stroke:none"
             d="m 2499.11,455.531 h 163.29 l 49.24,-32.769 h -212.53 v 32.769" /><path
             id="path58"
             style="fill:#254895;fill-opacity:1;fill-rule:nonzero;stroke:none"
             d="m 2565.04,741.375 h 235.91 v 32.7656 h -235.91 z" /><path
             id="path60"
             style="fill:#254895;fill-opacity:1;fill-rule:nonzero;stroke:none"
             d="m 2800.95,678.82 h -163.29 l -49.23,32.774 h 212.52 V 678.82" /><path
             id="path62"
             style="fill:#254895;fill-opacity:1;fill-rule:nonzero;stroke:none"
             d="m 2800.95,839.609 h -163.29 l -49.23,-32.773 h 212.52 v 32.773" /><path
             id="path64"
             style="fill:#254895;fill-opacity:1;fill-rule:nonzero;stroke:none"
             d="m 5987.81,1394.2 v 124.9 h -44.61 v 25.42 h 119.45 v -25.42 h -44.49 v -124.9 h -30.35" /><path
             id="path66"
             style="fill:#254895;fill-opacity:1;fill-rule:nonzero;stroke:none"
             d="m 6081.83,1394.2 v 150.32 h 45.43 l 27.28,-102.54 26.96,102.54 h 45.53 V 1394.2 h -28.2 v 118.33 L 6169,1394.2 h -29.23 l -29.74,118.33 V 1394.2 h -28.2" /></g></g></g></g></svg>